<?xml version="1.0" encoding="UTF-8" standalone="no"?>
<!DOCTYPE svg PUBLIC "-//W3C//DTD SVG 1.1//EN" "http://www.w3.org/Graphics/SVG/1.1/DTD/svg11.dtd">
<svg xmlns="http://www.w3.org/2000/svg" version="1.1" width="512" height="512" viewBox="73 55 380 380">
<g stroke-width="2.00" fill="none" stroke-linecap="butt">
<path stroke="#808080" vector-effect="non-scaling-stroke" d="
  M 262.99 412.16
  Q 277.06 412.17 290.58 409.78
  C 295.33 408.94 299.56 407.69 303.09 406.90
  C 318.43 403.46 334.13 396.53 346.75 388.81
  Q 401.85 355.11 421.00 293.71
  Q 423.97 284.18 426.07 271.10
  Q 428.17 257.93 428.22 248.00
  Q 428.34 222.28 421.05 197.09
  C 407.40 149.87 373.71 112.19 329.49 92.14
  C 321.96 88.72 311.53 84.98 304.02 83.26
  Q 292.08 80.53 275.25 78.79
  Q 272.76 78.54 267.81 78.72
  A 0.52 0.51 -1.2 0 0 267.31 79.23
  L 267.29 144.35
  A 1.25 1.01 58.0 0 1 267.25 144.64
  Q 266.22 148.73 263.23 148.73
  Q 260.23 148.73 259.20 144.63
  A 1.25 1.01 -57.9 0 1 259.17 144.34
  L 259.27 79.22
  A 0.52 0.51 1.3 0 0 258.77 78.71
  Q 253.82 78.52 251.33 78.77
  Q 234.49 80.48 222.55 83.19
  C 215.04 84.89 204.60 88.61 197.06 92.02
  C 152.81 111.99 119.05 149.61 105.31 196.81
  Q 97.98 221.98 98.05 247.70
  Q 98.08 257.63 100.16 270.81
  Q 102.24 283.89 105.19 293.43
  Q 124.23 354.86 179.27 388.66
  C 191.87 396.40 207.56 403.36 222.90 406.83
  C 226.42 407.62 230.65 408.88 235.40 409.73
  Q 248.92 412.15 262.99 412.16"
/>
<path stroke="#808080" vector-effect="non-scaling-stroke" d="
  M 249.93 90.23
  L 242.17 90.21
  A 0.23 0.23 0.0 0 0 241.94 90.44
  L 241.85 144.07
  A 4.64 3.98 -89.9 0 0 245.82 148.72
  L 246.08 148.72
  A 4.64 3.98 -89.9 0 0 250.07 144.09
  L 250.16 90.46
  A 0.23 0.23 0.0 0 0 249.93 90.23"
/>
<path stroke="#808080" vector-effect="non-scaling-stroke" d="
  M 283.66 90.22
  L 276.80 90.24
  A 0.70 0.70 0.0 0 0 276.10 90.94
  L 276.19 144.36
  A 4.32 4.08 89.9 0 0 280.28 148.67
  L 280.38 148.67
  A 4.32 4.08 89.9 0 0 284.45 144.34
  L 284.36 90.92
  A 0.70 0.70 0.0 0 0 283.66 90.22"
/>
<path stroke="#808080" vector-effect="non-scaling-stroke" d="
  M 293.79 103.44
  L 293.77 155.94
  A 0.38 0.37 -90.0 0 1 293.40 156.32
  L 232.96 156.32
  A 0.55 0.54 90.0 0 1 232.42 155.77
  L 232.37 103.43"
/>
<path stroke="#444442" vector-effect="non-scaling-stroke" d="
  M 232.37 103.43
  L 232.63 94.02
  A 1.20 1.20 0.0 0 0 231.17 92.82
  Q 209.06 97.75 189.93 108.42
  Q 172.17 118.33 157.47 132.38
  C 153.72 135.97 150.57 139.92 147.27 143.54
  Q 143.37 147.83 140.11 152.40
  Q 115.11 187.38 110.52 227.50
  Q 107.10 257.37 116.21 290.06
  Q 118.24 297.36 122.08 306.07
  Q 126.41 315.88 129.58 321.50
  Q 154.75 366.02 200.43 386.97
  C 229.60 400.35 263.61 404.44 295.10 397.37
  Q 319.23 391.95 340.47 379.43
  Q 370.31 361.84 391.43 330.39
  Q 396.33 323.10 400.16 314.97
  Q 404.69 305.33 407.21 298.72
  Q 413.62 281.89 415.62 262.74
  C 416.11 258.01 416.79 250.96 416.72 245.41
  Q 416.50 227.81 412.52 209.62
  Q 410.36 199.73 406.72 190.70
  Q 401.70 178.21 398.71 172.52
  Q 383.92 144.29 358.01 122.78
  C 349.51 115.73 338.99 109.69 329.10 104.62
  C 318.41 99.12 305.85 95.26 294.54 92.58
  A 0.71 0.70 6.1 0 0 293.67 93.27
  L 293.79 103.44"
/>
<path stroke="#c3c4c2" vector-effect="non-scaling-stroke" d="
  M 232.37 103.43
  Q 204.29 110.08 182.69 125.44
  Q 147.97 150.14 131.38 190.05
  C 122.45 211.55 119.14 234.56 121.06 257.95
  Q 123.19 283.88 134.59 307.85
  C 148.14 336.32 171.48 361.04 200.60 375.20
  Q 209.21 379.38 213.00 380.81
  Q 250.48 394.92 288.16 387.90
  C 326.69 380.72 360.97 357.51 382.33 324.53
  Q 409.05 283.29 405.26 232.24
  Q 404.85 226.66 403.50 219.44
  Q 401.98 211.22 400.69 206.77
  Q 388.84 165.57 358.22 137.29
  Q 331.01 112.16 293.79 103.44"
/>
<path stroke="#808080" vector-effect="non-scaling-stroke" d="
  M 300.96 165.42
  A 3.75 3.75 0.0 0 0 297.21 161.67
  L 229.11 161.67
  A 3.75 3.75 0.0 0 0 225.36 165.42
  L 225.36 165.52
  A 3.75 3.75 0.0 0 0 229.11 169.27
  L 297.21 169.27
  A 3.75 3.75 0.0 0 0 300.96 165.52
  L 300.96 165.42"
/>
<path stroke="#808080" vector-effect="non-scaling-stroke" d="
  M 264.94 311.79
  Q 264.98 311.76 265.13 311.62
  L 265.13 311.61
  L 296.08 221.28
  A 0.78 0.78 0.0 0 0 295.80 220.39
  Q 294.42 219.38 291.99 217.87
  C 282.03 211.70 272.02 196.83 270.59 184.42
  A 0.70 0.70 0.0 0 1 271.29 183.64
  L 304.33 183.64
  A 4.01 3.99 88.9 0 0 308.32 179.48
  L 308.30 179.00
  A 4.46 4.45 88.9 0 0 303.85 174.72
  L 222.37 174.70
  A 4.42 4.41 -88.9 0 0 217.95 178.97
  L 217.93 179.27
  A 4.09 4.09 0.0 0 0 222.01 183.63
  L 255.02 183.63
  A 0.75 0.75 0.0 0 1 255.75 184.53
  Q 251.77 203.71 236.47 216.27
  Q 234.48 217.91 231.06 219.67
  A 1.32 1.31 67.4 0 0 230.41 221.26
  L 240.87 252.16
  A 0.41 0.40 -32.1 0 0 241.54 252.31
  L 250.77 243.09
  A 0.38 0.38 0.0 0 1 251.38 243.18
  L 251.67 243.73
  A 0.07 0.06 -40.3 0 1 251.66 243.79
  Q 249.59 246.48 248.84 248.07
  Q 246.32 253.38 243.68 258.62
  A 2.02 2.01 47.1 0 0 243.62 260.31
  C 246.69 267.47 248.54 275.66 251.45 283.37
  Q 254.49 291.41 258.90 304.82
  Q 260.07 308.38 260.72 311.90
  A 0.16 0.16 0.0 0 0 260.82 312.01
  L 261.08 312.10
  A 0.14 0.14 0.0 0 0 261.26 311.97
  L 260.83 231.86
  A 1.05 1.04 21.8 0 0 260.50 231.10
  Q 259.89 230.53 259.23 230.01
  Q 253.86 225.74 257.89 220.50
  C 258.66 219.50 259.82 218.96 260.66 218.19
  A 0.91 0.90 -21.2 0 0 260.96 217.52
  L 260.96 184.93
  A 1.34 1.34 0.0 0 1 262.30 183.59
  L 263.91 183.59
  A 1.26 1.25 -90.0 0 1 265.16 184.85
  L 265.16 217.19
  A 1.49 1.47 21.7 0 0 265.63 218.27
  C 266.40 219.01 267.58 219.70 268.20 220.47
  Q 272.88 226.22 266.45 230.46
  Q 265.46 231.11 265.22 231.15
  A 0.48 0.47 75.1 0 0 264.85 231.79
  Q 265.11 232.50 265.11 233.52
  C 265.22 267.21 264.91 286.90 265.22 298.71
  Q 265.39 305.02 264.62 311.62
  A 0.19 0.19 0.0 0 0 264.94 311.79"
/>
<path stroke="#808080" vector-effect="non-scaling-stroke" d="
  M 263.10 382.54
  Q 263.13 382.54 263.17 382.54
  A 0.14 0.03 -60.0 0 0 263.24 382.45
  L 343.22 249.95
  A 0.28 0.28 0.0 0 0 342.98 249.52
  L 293.99 249.52
  A 0.75 0.75 0.0 0 0 293.28 250.03
  Q 276.13 300.31 263.84 336.59
  Q 263.49 337.62 263.11 337.62
  Q 262.74 337.62 262.39 336.59
  Q 250.12 300.30 232.99 250.01
  A 0.75 0.75 0.0 0 0 232.28 249.50
  L 183.29 249.48
  A 0.28 0.28 0.0 0 0 183.05 249.91
  L 262.96 382.45
  A 0.14 0.03 60.0 0 0 263.04 382.54
  Q 263.07 382.54 263.10 382.54"
/>
</g>
<path fill="#ffffff" d="
  M 532.00 0.00
  L 532.00 437.00
  L 0.00 437.00
  L 0.00 0.00
  L 532.00 0.00
  Z
  M 262.99 412.16
  Q 277.06 412.17 290.58 409.78
  C 295.33 408.94 299.56 407.69 303.09 406.90
  C 318.43 403.46 334.13 396.53 346.75 388.81
  Q 401.85 355.11 421.00 293.71
  Q 423.97 284.18 426.07 271.10
  Q 428.17 257.93 428.22 248.00
  Q 428.34 222.28 421.05 197.09
  C 407.40 149.87 373.71 112.19 329.49 92.14
  C 321.96 88.72 311.53 84.98 304.02 83.26
  Q 292.08 80.53 275.25 78.79
  Q 272.76 78.54 267.81 78.72
  A 0.52 0.51 -1.2 0 0 267.31 79.23
  L 267.29 144.35
  A 1.25 1.01 58.0 0 1 267.25 144.64
  Q 266.22 148.73 263.23 148.73
  Q 260.23 148.73 259.20 144.63
  A 1.25 1.01 -57.9 0 1 259.17 144.34
  L 259.27 79.22
  A 0.52 0.51 1.3 0 0 258.77 78.71
  Q 253.82 78.52 251.33 78.77
  Q 234.49 80.48 222.55 83.19
  C 215.04 84.89 204.60 88.61 197.06 92.02
  C 152.81 111.99 119.05 149.61 105.31 196.81
  Q 97.98 221.98 98.05 247.70
  Q 98.08 257.63 100.16 270.81
  Q 102.24 283.89 105.19 293.43
  Q 124.23 354.86 179.27 388.66
  C 191.87 396.40 207.56 403.36 222.90 406.83
  C 226.42 407.62 230.65 408.88 235.40 409.73
  Q 248.92 412.15 262.99 412.16
  Z"
/>
<path fill="#000000" d="
  M 263.23 148.73
  Q 266.22 148.73 267.25 144.64
  A 1.25 1.01 58.0 0 0 267.29 144.35
  L 267.31 79.23
  A 0.52 0.51 -1.2 0 1 267.81 78.72
  Q 272.76 78.54 275.25 78.79
  Q 292.08 80.53 304.02 83.26
  C 311.53 84.98 321.96 88.72 329.49 92.14
  C 373.71 112.19 407.40 149.87 421.05 197.09
  Q 428.34 222.28 428.22 248.00
  Q 428.17 257.93 426.07 271.10
  Q 423.97 284.18 421.00 293.71
  Q 401.85 355.11 346.75 388.81
  C 334.13 396.53 318.43 403.46 303.09 406.90
  C 299.56 407.69 295.33 408.94 290.58 409.78
  Q 277.06 412.17 262.99 412.16
  Q 248.92 412.15 235.40 409.73
  C 230.65 408.88 226.42 407.62 222.90 406.83
  C 207.56 403.36 191.87 396.40 179.27 388.66
  Q 124.23 354.86 105.19 293.43
  Q 102.24 283.89 100.16 270.81
  Q 98.08 257.63 98.05 247.70
  Q 97.98 221.98 105.31 196.81
  C 119.05 149.61 152.81 111.99 197.06 92.02
  C 204.60 88.61 215.04 84.89 222.55 83.19
  Q 234.49 80.48 251.33 78.77
  Q 253.82 78.52 258.77 78.71
  A 0.52 0.51 1.3 0 1 259.27 79.22
  L 259.17 144.34
  A 1.25 1.01 -57.9 0 0 259.20 144.63
  Q 260.23 148.73 263.23 148.73
  Z
  M 249.93 90.23
  L 242.17 90.21
  A 0.23 0.23 0.0 0 0 241.94 90.44
  L 241.85 144.07
  A 4.64 3.98 -89.9 0 0 245.82 148.72
  L 246.08 148.72
  A 4.64 3.98 -89.9 0 0 250.07 144.09
  L 250.16 90.46
  A 0.23 0.23 0.0 0 0 249.93 90.23
  Z
  M 283.66 90.22
  L 276.80 90.24
  A 0.70 0.70 0.0 0 0 276.10 90.94
  L 276.19 144.36
  A 4.32 4.08 89.9 0 0 280.28 148.67
  L 280.38 148.67
  A 4.32 4.08 89.9 0 0 284.45 144.34
  L 284.36 90.92
  A 0.70 0.70 0.0 0 0 283.66 90.22
  Z
  M 293.79 103.44
  L 293.77 155.94
  A 0.38 0.37 -90.0 0 1 293.40 156.32
  L 232.96 156.32
  A 0.55 0.54 90.0 0 1 232.42 155.77
  L 232.37 103.43
  L 232.63 94.02
  A 1.20 1.20 0.0 0 0 231.17 92.82
  Q 209.06 97.75 189.93 108.42
  Q 172.17 118.33 157.47 132.38
  C 153.72 135.97 150.57 139.92 147.27 143.54
  Q 143.37 147.83 140.11 152.40
  Q 115.11 187.38 110.52 227.50
  Q 107.10 257.37 116.21 290.06
  Q 118.24 297.36 122.08 306.07
  Q 126.41 315.88 129.58 321.50
  Q 154.75 366.02 200.43 386.97
  C 229.60 400.35 263.61 404.44 295.10 397.37
  Q 319.23 391.95 340.47 379.43
  Q 370.31 361.84 391.43 330.39
  Q 396.33 323.10 400.16 314.97
  Q 404.69 305.33 407.21 298.72
  Q 413.62 281.89 415.62 262.74
  C 416.11 258.01 416.79 250.96 416.72 245.41
  Q 416.50 227.81 412.52 209.62
  Q 410.36 199.73 406.72 190.70
  Q 401.70 178.21 398.71 172.52
  Q 383.92 144.29 358.01 122.78
  C 349.51 115.73 338.99 109.69 329.10 104.62
  C 318.41 99.12 305.85 95.26 294.54 92.58
  A 0.71 0.70 6.1 0 0 293.67 93.27
  L 293.79 103.44
  Z"
/>
<path fill="#ffffff" d="
  M 249.93 90.23
  A 0.23 0.23 0.0 0 1 250.16 90.46
  L 250.07 144.09
  A 4.64 3.98 -89.9 0 1 246.08 148.72
  L 245.82 148.72
  A 4.64 3.98 -89.9 0 1 241.85 144.07
  L 241.94 90.44
  A 0.23 0.23 0.0 0 1 242.17 90.21
  L 249.93 90.23
  Z"
/>
<path fill="#ffffff" d="
  M 283.66 90.22
  A 0.70 0.70 0.0 0 1 284.36 90.92
  L 284.45 144.34
  A 4.32 4.08 89.9 0 1 280.38 148.67
  L 280.28 148.67
  A 4.32 4.08 89.9 0 1 276.19 144.36
  L 276.10 90.94
  A 0.70 0.70 0.0 0 1 276.80 90.24
  L 283.66 90.22
  Z"
/>
<path fill="#878884" d="
  M 232.37 103.43
  Q 204.29 110.08 182.69 125.44
  Q 147.97 150.14 131.38 190.05
  C 122.45 211.55 119.14 234.56 121.06 257.95
  Q 123.19 283.88 134.59 307.85
  C 148.14 336.32 171.48 361.04 200.60 375.20
  Q 209.21 379.38 213.00 380.81
  Q 250.48 394.92 288.16 387.90
  C 326.69 380.72 360.97 357.51 382.33 324.53
  Q 409.05 283.29 405.26 232.24
  Q 404.85 226.66 403.50 219.44
  Q 401.98 211.22 400.69 206.77
  Q 388.84 165.57 358.22 137.29
  Q 331.01 112.16 293.79 103.44
  L 293.67 93.27
  A 0.71 0.70 6.1 0 1 294.54 92.58
  C 305.85 95.26 318.41 99.12 329.10 104.62
  C 338.99 109.69 349.51 115.73 358.01 122.78
  Q 383.92 144.29 398.71 172.52
  Q 401.70 178.21 406.72 190.70
  Q 410.36 199.73 412.52 209.62
  Q 416.50 227.81 416.72 245.41
  C 416.79 250.96 416.11 258.01 415.62 262.74
  Q 413.62 281.89 407.21 298.72
  Q 404.69 305.33 400.16 314.97
  Q 396.33 323.10 391.43 330.39
  Q 370.31 361.84 340.47 379.43
  Q 319.23 391.95 295.10 397.37
  C 263.61 404.44 229.60 400.35 200.43 386.97
  Q 154.75 366.02 129.58 321.50
  Q 126.41 315.88 122.08 306.07
  Q 118.24 297.36 116.21 290.06
  Q 107.10 257.37 110.52 227.50
  Q 115.11 187.38 140.11 152.40
  Q 143.37 147.83 147.27 143.54
  C 150.57 139.92 153.72 135.97 157.47 132.38
  Q 172.17 118.33 189.93 108.42
  Q 209.06 97.75 231.17 92.82
  A 1.20 1.20 0.0 0 1 232.63 94.02
  L 232.37 103.43
  Z"
/>
<path fill="#ffffff" d="
  M 232.37 103.43
  L 232.42 155.77
  A 0.55 0.54 90.0 0 0 232.96 156.32
  L 293.40 156.32
  A 0.38 0.37 90.0 0 0 293.77 155.94
  L 293.79 103.44
  Q 331.01 112.16 358.22 137.29
  Q 388.84 165.57 400.69 206.77
  Q 401.98 211.22 403.50 219.44
  Q 404.85 226.66 405.26 232.24
  Q 409.05 283.29 382.33 324.53
  C 360.97 357.51 326.69 380.72 288.16 387.90
  Q 250.48 394.92 213.00 380.81
  Q 209.21 379.38 200.60 375.20
  C 171.48 361.04 148.14 336.32 134.59 307.85
  Q 123.19 283.88 121.06 257.95
  C 119.14 234.56 122.45 211.55 131.38 190.05
  Q 147.97 150.14 182.69 125.44
  Q 204.29 110.08 232.37 103.43
  Z
  M 300.96 165.42
  A 3.75 3.75 0.0 0 0 297.21 161.67
  L 229.11 161.67
  A 3.75 3.75 0.0 0 0 225.36 165.42
  L 225.36 165.52
  A 3.75 3.75 0.0 0 0 229.11 169.27
  L 297.21 169.27
  A 3.75 3.75 0.0 0 0 300.96 165.52
  L 300.96 165.42
  Z
  M 264.94 311.79
  Q 264.98 311.76 265.13 311.62
  L 265.13 311.61
  L 296.08 221.28
  A 0.78 0.78 0.0 0 0 295.80 220.39
  Q 294.42 219.38 291.99 217.87
  C 282.03 211.70 272.02 196.83 270.59 184.42
  A 0.70 0.70 0.0 0 1 271.29 183.64
  L 304.33 183.64
  A 4.01 3.99 88.9 0 0 308.32 179.48
  L 308.30 179.00
  A 4.46 4.45 88.9 0 0 303.85 174.72
  L 222.37 174.70
  A 4.42 4.41 -88.9 0 0 217.95 178.97
  L 217.93 179.27
  A 4.09 4.09 0.0 0 0 222.01 183.63
  L 255.02 183.63
  A 0.75 0.75 0.0 0 1 255.75 184.53
  Q 251.77 203.71 236.47 216.27
  Q 234.48 217.91 231.06 219.67
  A 1.32 1.31 67.4 0 0 230.41 221.26
  L 240.87 252.16
  A 0.41 0.40 -32.1 0 0 241.54 252.31
  L 250.77 243.09
  A 0.38 0.38 0.0 0 1 251.38 243.18
  L 251.67 243.73
  A 0.07 0.06 -40.3 0 1 251.66 243.79
  Q 249.59 246.48 248.84 248.07
  Q 246.32 253.38 243.68 258.62
  A 2.02 2.01 47.1 0 0 243.62 260.31
  C 246.69 267.47 248.54 275.66 251.45 283.37
  Q 254.49 291.41 258.90 304.82
  Q 260.07 308.38 260.72 311.90
  A 0.16 0.16 0.0 0 0 260.82 312.01
  L 261.08 312.10
  A 0.14 0.14 0.0 0 0 261.26 311.97
  L 260.83 231.86
  A 1.05 1.04 21.8 0 0 260.50 231.10
  Q 259.89 230.53 259.23 230.01
  Q 253.86 225.74 257.89 220.50
  C 258.66 219.50 259.82 218.96 260.66 218.19
  A 0.91 0.90 -21.2 0 0 260.96 217.52
  L 260.96 184.93
  A 1.34 1.34 0.0 0 1 262.30 183.59
  L 263.91 183.59
  A 1.26 1.25 -90.0 0 1 265.16 184.85
  L 265.16 217.19
  A 1.49 1.47 21.7 0 0 265.63 218.27
  C 266.40 219.01 267.58 219.70 268.20 220.47
  Q 272.88 226.22 266.45 230.46
  Q 265.46 231.11 265.22 231.15
  A 0.48 0.47 75.1 0 0 264.85 231.79
  Q 265.11 232.50 265.11 233.52
  C 265.22 267.21 264.91 286.90 265.22 298.71
  Q 265.39 305.02 264.62 311.62
  A 0.19 0.19 0.0 0 0 264.94 311.79
  Z
  M 263.10 382.54
  Q 263.13 382.54 263.17 382.54
  A 0.14 0.03 -60.0 0 0 263.24 382.45
  L 343.22 249.95
  A 0.28 0.28 0.0 0 0 342.98 249.52
  L 293.99 249.52
  A 0.75 0.75 0.0 0 0 293.28 250.03
  Q 276.13 300.31 263.84 336.59
  Q 263.49 337.62 263.11 337.62
  Q 262.74 337.62 262.39 336.59
  Q 250.12 300.30 232.99 250.01
  A 0.75 0.75 0.0 0 0 232.28 249.50
  L 183.29 249.48
  A 0.28 0.28 0.0 0 0 183.05 249.91
  L 262.96 382.45
  A 0.14 0.03 60.0 0 0 263.04 382.54
  Q 263.07 382.54 263.10 382.54
  Z"
/>
<rect fill="#000000" x="225.36" y="161.67" width="75.60" height="7.60" rx="3.75"/>
<path fill="#000000" d="
  M 264.94 311.79
  A 0.19 0.19 0.0 0 1 264.62 311.62
  Q 265.39 305.02 265.22 298.71
  C 264.91 286.90 265.22 267.21 265.11 233.52
  Q 265.11 232.50 264.85 231.79
  A 0.48 0.47 75.1 0 1 265.22 231.15
  Q 265.46 231.11 266.45 230.46
  Q 272.88 226.22 268.20 220.47
  C 267.58 219.70 266.40 219.01 265.63 218.27
  A 1.49 1.47 21.7 0 1 265.16 217.19
  L 265.16 184.85
  A 1.26 1.25 90.0 0 0 263.91 183.59
  L 262.30 183.59
  A 1.34 1.34 0.0 0 0 260.96 184.93
  L 260.96 217.52
  A 0.91 0.90 -21.2 0 1 260.66 218.19
  C 259.82 218.96 258.66 219.50 257.89 220.50
  Q 253.86 225.74 259.23 230.01
  Q 259.89 230.53 260.50 231.10
  A 1.05 1.04 21.8 0 1 260.83 231.86
  L 261.26 311.97
  A 0.14 0.14 0.0 0 1 261.08 312.10
  L 260.82 312.01
  A 0.16 0.16 0.0 0 1 260.72 311.90
  Q 260.07 308.38 258.90 304.82
  Q 254.49 291.41 251.45 283.37
  C 248.54 275.66 246.69 267.47 243.62 260.31
  A 2.02 2.01 47.1 0 1 243.68 258.62
  Q 246.32 253.38 248.84 248.07
  Q 249.59 246.48 251.66 243.79
  A 0.07 0.06 -40.3 0 0 251.67 243.73
  L 251.38 243.18
  A 0.38 0.38 0.0 0 0 250.77 243.09
  L 241.54 252.31
  A 0.41 0.40 -32.1 0 1 240.87 252.16
  L 230.41 221.26
  A 1.32 1.31 67.4 0 1 231.06 219.67
  Q 234.48 217.91 236.47 216.27
  Q 251.77 203.71 255.75 184.53
  A 0.75 0.75 0.0 0 0 255.02 183.63
  L 222.01 183.63
  A 4.09 4.09 0.0 0 1 217.93 179.27
  L 217.95 178.97
  A 4.42 4.41 -88.9 0 1 222.37 174.70
  L 303.85 174.72
  A 4.46 4.45 88.9 0 1 308.30 179.00
  L 308.32 179.48
  A 4.01 3.99 88.9 0 1 304.33 183.64
  L 271.29 183.64
  A 0.70 0.70 0.0 0 0 270.59 184.42
  C 272.02 196.83 282.03 211.70 291.99 217.87
  Q 294.42 219.38 295.80 220.39
  A 0.78 0.78 0.0 0 1 296.08 221.28
  L 265.13 311.61
  L 265.13 311.62
  Q 264.98 311.76 264.94 311.79
  Z"
/>
<path fill="#000000" d="
  M 263.11 337.62
  Q 263.49 337.62 263.84 336.59
  Q 276.13 300.31 293.28 250.03
  A 0.75 0.75 0.0 0 1 293.99 249.52
  L 342.98 249.52
  A 0.28 0.28 0.0 0 1 343.22 249.95
  L 263.24 382.45
  A 0.14 0.03 -60.0 0 1 263.17 382.54
  Q 263.13 382.54 263.10 382.54
  Q 263.07 382.54 263.04 382.54
  A 0.14 0.03 60.0 0 1 262.96 382.45
  L 183.05 249.91
  A 0.28 0.28 0.0 0 1 183.29 249.48
  L 232.28 249.50
  A 0.75 0.75 0.0 0 1 232.99 250.01
  Q 250.12 300.30 262.39 336.59
  Q 262.74 337.62 263.11 337.62
  Z"
/>
</svg>
